<svg id="visual" viewBox="0 0 120 50" width="120" height="50" xmlns="http://www.w3.org/2000/svg" xmlns:xlink="http://www.w3.org/1999/xlink" version="1.1"><rect x="0" y="0" width="120" height="50" fill="#2b2b2b"></rect><defs><linearGradient id="grad1_0" x1="58.3%" y1="0%" x2="100%" y2="100%"><stop offset="2.0000000000000036%" stop-color="#2b2b2b" stop-opacity="1"></stop><stop offset="98%" stop-color="#2b2b2b" stop-opacity="1"></stop></linearGradient></defs><defs><linearGradient id="grad2_0" x1="0%" y1="0%" x2="41.7%" y2="100%"><stop offset="2.0000000000000036%" stop-color="#2b2b2b" stop-opacity="1"></stop><stop offset="98%" stop-color="#2b2b2b" stop-opacity="1"></stop></linearGradient></defs><g transform="translate(120, 0)"><path d="M0 20C-2.9 19.7 -5.8 19.4 -7.3 17.6C-8.7 15.7 -8.6 12.2 -10.6 10.6C-12.6 9 -16.6 9.1 -18.5 7.7C-20.4 6.2 -20.2 3.1 -20 0L0 0Z" fill="#f55951"></path></g><g transform="translate(0, 50)"><path d="M0 -20C2.2 -18.1 4.4 -16.2 6.1 -14.8C7.8 -13.3 9.1 -12.3 11.3 -11.3C13.6 -10.4 16.9 -9.5 18.5 -7.7C20.1 -5.8 20 -2.9 20 0L0 0Z" fill="#f55951"></path></g></svg>