<svg id="Layer_1" data-name="Layer 1" xmlns="http://www.w3.org/2000/svg" viewBox="0 0 664.98 182"><defs><style>.cls-1{fill:#ea5953;}.cls-2{fill:#2b2b2b;}</style></defs><rect class="cls-1" x="141.47" width="141.47" height="36.84" rx="2.06"/><rect class="cls-1" y="60.08" width="282.94" height="36.84" rx="2.06"/><rect class="cls-1" x="67.19" y="120.17" width="215.74" height="36.84" rx="2.06"/><path class="cls-1" d="M452.25,461.62h57q50.64,0,50.64,39.85,0,19.75-17.34,32.85,25.15,10.9,25.15,38.93,0,21.46-14.82,34.22a42.36,42.36,0,0,1-15.5,8.5q-8.26,2.4-22.27,2.41h-8.85V578.07h7.93c4.66,0,8-.6,9.87-1.78s2.87-3.27,2.87-6.26q0-7.57-11.71-7.58h-9v-41.8q12.87,0,12.86-8.84,0-8.16-11.59-8.15h-8.62V618.38H452.25Z" transform="translate(-207.91 -461.5)"/><path class="cls-2" d="M633.12,461.62V618.38H586.5V461.62Z" transform="translate(-207.91 -461.5)"/><path class="cls-2" d="M732.68,506.64V618.38H686.05V506.64H650.34v-45H768.28v45Z" transform="translate(-207.91 -461.5)"/><path class="cls-2" d="M869.1,522.6v34.91H838.67q-6.2,0-8.78,1.84c-1.72,1.23-2.58,3.29-2.58,6.2,0,3.29.87,5.46,2.63,6.49s5.36,1.55,10.8,1.55h31.35v44.79H835.46q-25.85,0-39.51-12.35t-13.66-35.66V508.94q0-22.51,12.92-34.91t36.34-12.41h40.54v45H842.35q-12.06,0-12.06,7.81c0,3.06,1,5.19,2.87,6.37s5.32,1.78,10.22,1.78Z" transform="translate(-207.91 -461.5)"/><path class="cls-2" d="M458.34,639.6h-.17a.36.36,0,0,1-.14,0,4.89,4.89,0,0,1-2.41-.85,4.1,4.1,0,0,1-1.44-2,9.07,9.07,0,0,1-.47-3.1,16.78,16.78,0,0,1,.23-2.7,15.73,15.73,0,0,1,.69-2.7,12.41,12.41,0,0,1,1.17-2.43,9.16,9.16,0,0,1,1.62-2,7.2,7.2,0,0,1,2.06-1.35A6.42,6.42,0,0,1,462,622a4.76,4.76,0,0,1,3.92,1.55,6.9,6.9,0,0,1,1.26,4.45,14.87,14.87,0,0,1-.19,2.35,21,21,0,0,1-.54,2.45,12.51,12.51,0,0,1-.92,2.34,10.7,10.7,0,0,1-1.35,2,7.43,7.43,0,0,1-1.77,1.54l1.89,4.77h-4.77Zm.94-3.62a1.66,1.66,0,0,0,1-.37,3.4,3.4,0,0,0,.87-1,9.26,9.26,0,0,0,.71-1.48,12,12,0,0,0,.54-1.73,16.32,16.32,0,0,0,.33-1.78,14.29,14.29,0,0,0,.1-1.66,3.63,3.63,0,0,0-.32-1.75,1,1,0,0,0-.92-.58,1.64,1.64,0,0,0-1,.37,3.86,3.86,0,0,0-.88,1,9,9,0,0,0-.72,1.46,12.35,12.35,0,0,0-.52,1.72c-.13.6-.24,1.21-.32,1.81a12.61,12.61,0,0,0-.12,1.67,5.46,5.46,0,0,0,.14,1.38,1.29,1.29,0,0,0,.44.7A1,1,0,0,0,459.28,636Z" transform="translate(-207.91 -461.5)"/><path class="cls-2" d="M506.46,639.65a3,3,0,0,1-1.65-.43,2.7,2.7,0,0,1-1-1.16,3.89,3.89,0,0,1-.34-1.67,10.46,10.46,0,0,1,.07-1.08c.05-.39.11-.76.17-1.13l1.71-8h4L508,633.46c-.05.32-.1.64-.16,1a5.6,5.6,0,0,0-.08.84,1.14,1.14,0,0,0,.16.65.51.51,0,0,0,.46.24.86.86,0,0,0,.65-.41,4.29,4.29,0,0,0,.58-1.16,13,13,0,0,0,.45-1.72l1.44-6.72h4.06l-2.78,13.27h-3.27l.07-1.63h-.07a5.57,5.57,0,0,1-.84,1,3.22,3.22,0,0,1-1,.65A3.18,3.18,0,0,1,506.46,639.65Z" transform="translate(-207.91 -461.5)"/><path class="cls-2" d="M550.65,639.41l2.83-13.27h4l-2.81,13.27Zm5.25-14.57a2.4,2.4,0,0,1-1.4-.36,1.29,1.29,0,0,1-.52-1.15,2.79,2.79,0,0,1,.28-1.25,2.23,2.23,0,0,1,.84-.94,2.51,2.51,0,0,1,1.43-.38,2.23,2.23,0,0,1,1.35.38,1.28,1.28,0,0,1,.52,1.14,2.64,2.64,0,0,1-.66,1.83A2.34,2.34,0,0,1,555.9,624.84Z" transform="translate(-207.91 -461.5)"/><path class="cls-2" d="M597.42,639.65a4.06,4.06,0,0,1-2.11-.53,3.39,3.39,0,0,1-1.4-1.56,5.74,5.74,0,0,1-.5-2.52,13.29,13.29,0,0,1,.26-2.55,11.62,11.62,0,0,1,.75-2.47,8.84,8.84,0,0,1,1.27-2.1,5.63,5.63,0,0,1,1.85-1.48,5.36,5.36,0,0,1,2.43-.54,7,7,0,0,1,1.87.24,6.32,6.32,0,0,1,1.68.77L602,630a3.49,3.49,0,0,0-.91-.52,3,3,0,0,0-1-.2,1.44,1.44,0,0,0-1,.38,2.87,2.87,0,0,0-.71,1,9.74,9.74,0,0,0-.47,1.32,8.79,8.79,0,0,0-.26,1.38,10.46,10.46,0,0,0-.07,1.15,4.35,4.35,0,0,0,.09,1,1,1,0,0,0,.31.55.91.91,0,0,0,.56.17,3.35,3.35,0,0,0,1.3-.28,8.1,8.1,0,0,0,1.48-.8l0,3.36a6.86,6.86,0,0,1-3.84,1.15Z" transform="translate(-207.91 -461.5)"/><path class="cls-2" d="M638.29,639.41l3.84-18.24h4.08l-1.56,7.27c-.09.45-.2.91-.32,1.37s-.24.91-.37,1.32h0l3.69-5h4.49L647.46,632l2.14,7.46h-4.44L644,634.92l-1,.75-.72,3.74Z" transform="translate(-207.91 -461.5)"/><path class="cls-2" d="M726.49,639.41l3.63-17.13H735a6.94,6.94,0,0,1,2.37.37,3.22,3.22,0,0,1,1.61,1.19,3.51,3.51,0,0,1,.58,2.11,5.25,5.25,0,0,1-.34,1.95,4,4,0,0,1-1,1.53,4.73,4.73,0,0,1-1.71,1l0,.09a2.73,2.73,0,0,1,1.31,1.17,3.72,3.72,0,0,1,.49,1.95,5.85,5.85,0,0,1-.74,3,5.43,5.43,0,0,1-2.11,2.06,6.78,6.78,0,0,1-3.29.75Zm5.62-3.45a1.61,1.61,0,0,0,1-.34,2.22,2.22,0,0,0,.65-.89,3.16,3.16,0,0,0,.22-1.2,1.63,1.63,0,0,0-.27-1,1.07,1.07,0,0,0-.88-.35h-.62l-.79,3.8Zm1.39-7a1.45,1.45,0,0,0,1-.31,1.88,1.88,0,0,0,.56-.81,3.15,3.15,0,0,0,.18-1.06,1.15,1.15,0,0,0-.27-.83,1.11,1.11,0,0,0-.82-.27h-.52l-.72,3.28Z" transform="translate(-207.91 -461.5)"/><path class="cls-2" d="M774.83,639.41l2.83-13.27h4l-2.81,13.27Zm5.25-14.57a2.4,2.4,0,0,1-1.4-.36,1.31,1.31,0,0,1-.51-1.15,2.93,2.93,0,0,1,.27-1.25,2.23,2.23,0,0,1,.84-.94,2.54,2.54,0,0,1,1.43-.38,2.23,2.23,0,0,1,1.35.38,1.28,1.28,0,0,1,.52,1.14,2.64,2.64,0,0,1-.66,1.83A2.34,2.34,0,0,1,780.08,624.84Z" transform="translate(-207.91 -461.5)"/><path class="cls-2" d="M821,639.65a2.77,2.77,0,0,1-2.27-.83,3.39,3.39,0,0,1-.69-2.24c0-.3,0-.64.09-1a11,11,0,0,1,.2-1.17l1-5H818l.46-2,2-1.08,1.41-2.78h2.81l-.57,2.66h2.54l-.72,3.24h-2.54l-1.08,5.33c0,.14-.07.29-.1.44a2.11,2.11,0,0,0,0,.37.67.67,0,0,0,.16.53.65.65,0,0,0,.47.15,3.38,3.38,0,0,0,.69-.11,6.58,6.58,0,0,0,1-.3l0,3.17a5.75,5.75,0,0,1-1.64.52A9.64,9.64,0,0,1,821,639.65Z" transform="translate(-207.91 -461.5)"/><path class="cls-2" d="M866.51,639.65a5,5,0,0,1-2.41-.56,3.74,3.74,0,0,1-1.55-1.6A5.45,5.45,0,0,1,862,635a12.87,12.87,0,0,1,.4-3.2,10.14,10.14,0,0,1,1.22-2.91,6.6,6.6,0,0,1,2.12-2.15,5.86,5.86,0,0,1,3.15-.82,4.29,4.29,0,0,1,2.88,1,3.19,3.19,0,0,1,1.1,2.53,4.33,4.33,0,0,1-.77,2.63,4.55,4.55,0,0,1-2.22,1.6,10.07,10.07,0,0,1-3.44.53h-.38a1.69,1.69,0,0,1,0,.3c0,.1,0,.21,0,.32a1.91,1.91,0,0,0,.37,1.32,1.48,1.48,0,0,0,1.14.41,5.4,5.4,0,0,0,1.63-.24,9.86,9.86,0,0,0,1.73-.77l0,3a7.85,7.85,0,0,1-2.09.93A9.25,9.25,0,0,1,866.51,639.65Zm.24-8.28a4.21,4.21,0,0,0,1.49-.21,1.38,1.38,0,0,0,.72-.6,1.88,1.88,0,0,0,.19-.8.84.84,0,0,0-.22-.6.78.78,0,0,0-.62-.24,1,1,0,0,0-.66.3,2.64,2.64,0,0,0-.58.84,9.26,9.26,0,0,0-.47,1.31Z" transform="translate(-207.91 -461.5)"/></svg>